<svg xmlns="http://www.w3.org/2000/svg" xmlns:xlink="http://www.w3.org/1999/xlink" width="273" zoomAndPan="magnify" viewBox="0 0 204.75 30.000001" height="40" preserveAspectRatio="xMidYMid meet" version="1.0"><defs><g/><clipPath id="3643e5f5ac"><path d="M 108 8 L 124 8 L 124 29.03125 L 108 29.03125 Z M 108 8 " clip-rule="nonzero"/></clipPath><clipPath id="d8ed619c37"><path d="M 36 4 L 48.273438 4 L 48.273438 25 L 36 25 Z M 36 4 " clip-rule="nonzero"/></clipPath><clipPath id="209e30f887"><path d="M 8.308594 4 L 21 4 L 21 25 L 8.308594 25 Z M 8.308594 4 " clip-rule="nonzero"/></clipPath><clipPath id="a5e133239d"><path d="M 21 0 L 35 0 L 35 29.03125 L 21 29.03125 Z M 21 0 " clip-rule="nonzero"/></clipPath></defs><g fill="#2196f3" fill-opacity="1"><g transform="translate(51.42872, 22.264628)"><g><path d="M 14.515625 -17.4375 L 14.515625 -13.578125 L 9.875 -13.578125 L 9.875 0 L 5.015625 0 L 5.015625 -13.578125 L 0.421875 -13.578125 L 0.421875 -17.4375 Z M 14.515625 -17.4375 "/></g></g></g><g fill="#2196f3" fill-opacity="1"><g transform="translate(66.370783, 22.264628)"><g><path d="M 10.515625 -14 C 12.097656 -14 13.351562 -13.46875 14.28125 -12.40625 C 15.21875 -11.34375 15.6875 -9.90625 15.6875 -8.09375 L 15.6875 0 L 10.828125 0 L 10.828125 -7.4375 C 10.828125 -8.226562 10.617188 -8.851562 10.203125 -9.3125 C 9.796875 -9.769531 9.25 -10 8.5625 -10 C 7.832031 -10 7.257812 -9.769531 6.84375 -9.3125 C 6.4375 -8.851562 6.234375 -8.226562 6.234375 -7.4375 L 6.234375 0 L 1.390625 0 L 1.390625 -18.296875 L 6.234375 -18.296875 L 6.234375 -11.890625 C 6.660156 -12.523438 7.238281 -13.035156 7.96875 -13.421875 C 8.707031 -13.804688 9.554688 -14 10.515625 -14 Z M 10.515625 -14 "/></g></g></g><g fill="#2196f3" fill-opacity="1"><g transform="translate(83.34142, 22.264628)"><g><path d="M 3.828125 -15.15625 C 2.972656 -15.15625 2.285156 -15.390625 1.765625 -15.859375 C 1.242188 -16.335938 0.984375 -16.929688 0.984375 -17.640625 C 0.984375 -18.359375 1.242188 -18.957031 1.765625 -19.4375 C 2.285156 -19.914062 2.972656 -20.15625 3.828125 -20.15625 C 4.671875 -20.15625 5.351562 -19.914062 5.875 -19.4375 C 6.394531 -18.957031 6.65625 -18.359375 6.65625 -17.640625 C 6.65625 -16.929688 6.394531 -16.335938 5.875 -15.859375 C 5.351562 -15.390625 4.671875 -15.15625 3.828125 -15.15625 Z M 6.234375 -13.875 L 6.234375 0 L 1.390625 0 L 1.390625 -13.875 Z M 6.234375 -13.875 "/></g></g></g><g fill="#2196f3" fill-opacity="1"><g transform="translate(90.960883, 22.264628)"><g><path d="M 0.59375 -6.953125 C 0.59375 -8.390625 0.851562 -9.640625 1.375 -10.703125 C 1.894531 -11.773438 2.601562 -12.597656 3.5 -13.171875 C 4.394531 -13.753906 5.394531 -14.046875 6.5 -14.046875 C 7.457031 -14.046875 8.28125 -13.851562 8.96875 -13.46875 C 9.664062 -13.09375 10.207031 -12.585938 10.59375 -11.953125 L 10.59375 -13.875 L 15.4375 -13.875 L 15.4375 0 L 10.59375 0 L 10.59375 -1.921875 C 10.207031 -1.285156 9.664062 -0.773438 8.96875 -0.390625 C 8.269531 -0.015625 7.445312 0.171875 6.5 0.171875 C 5.394531 0.171875 4.394531 -0.113281 3.5 -0.6875 C 2.601562 -1.269531 1.894531 -2.097656 1.375 -3.171875 C 0.851562 -4.253906 0.59375 -5.515625 0.59375 -6.953125 Z M 10.59375 -6.953125 C 10.59375 -7.835938 10.347656 -8.535156 9.859375 -9.046875 C 9.367188 -9.554688 8.769531 -9.8125 8.0625 -9.8125 C 7.332031 -9.8125 6.726562 -9.5625 6.25 -9.0625 C 5.78125 -8.5625 5.546875 -7.859375 5.546875 -6.953125 C 5.546875 -6.054688 5.78125 -5.347656 6.25 -4.828125 C 6.726562 -4.316406 7.332031 -4.0625 8.0625 -4.0625 C 8.769531 -4.0625 9.367188 -4.316406 9.859375 -4.828125 C 10.347656 -5.335938 10.59375 -6.046875 10.59375 -6.953125 Z M 10.59375 -6.953125 "/></g></g></g><g clip-path="url(#3643e5f5ac)"><g fill="#2196f3" fill-opacity="1"><g transform="translate(107.783076, 22.264628)"><g><path d="M 6.5 -14.046875 C 7.445312 -14.046875 8.269531 -13.851562 8.96875 -13.46875 C 9.664062 -13.09375 10.207031 -12.585938 10.59375 -11.953125 L 10.59375 -13.875 L 15.4375 -13.875 L 15.4375 -0.140625 C 15.4375 1.160156 15.1875 2.332031 14.6875 3.375 C 14.195312 4.425781 13.425781 5.265625 12.375 5.890625 C 11.332031 6.515625 10.007812 6.828125 8.40625 6.828125 C 6.257812 6.828125 4.539062 6.320312 3.25 5.3125 C 1.96875 4.3125 1.238281 2.945312 1.0625 1.21875 L 5.84375 1.21875 C 5.9375 1.65625 6.179688 2 6.578125 2.25 C 6.972656 2.5 7.484375 2.625 8.109375 2.625 C 9.765625 2.625 10.59375 1.703125 10.59375 -0.140625 L 10.59375 -1.921875 C 10.207031 -1.285156 9.664062 -0.773438 8.96875 -0.390625 C 8.269531 -0.015625 7.445312 0.171875 6.5 0.171875 C 5.394531 0.171875 4.394531 -0.113281 3.5 -0.6875 C 2.601562 -1.269531 1.894531 -2.097656 1.375 -3.171875 C 0.851562 -4.253906 0.59375 -5.515625 0.59375 -6.953125 C 0.59375 -8.390625 0.851562 -9.640625 1.375 -10.703125 C 1.894531 -11.773438 2.601562 -12.597656 3.5 -13.171875 C 4.394531 -13.753906 5.394531 -14.046875 6.5 -14.046875 Z M 10.59375 -6.953125 C 10.59375 -7.835938 10.347656 -8.535156 9.859375 -9.046875 C 9.367188 -9.554688 8.769531 -9.8125 8.0625 -9.8125 C 7.332031 -9.8125 6.726562 -9.5625 6.25 -9.0625 C 5.78125 -8.5625 5.546875 -7.859375 5.546875 -6.953125 C 5.546875 -6.054688 5.78125 -5.347656 6.25 -4.828125 C 6.726562 -4.316406 7.332031 -4.0625 8.0625 -4.0625 C 8.769531 -4.0625 9.367188 -4.316406 9.859375 -4.828125 C 10.347656 -5.335938 10.59375 -6.046875 10.59375 -6.953125 Z M 10.59375 -6.953125 "/></g></g></g></g><g fill="#2196f3" fill-opacity="1"><g transform="translate(124.605269, 22.264628)"><g><path d="M 7.84375 0.171875 C 6.457031 0.171875 5.210938 -0.113281 4.109375 -0.6875 C 3.015625 -1.269531 2.15625 -2.097656 1.53125 -3.171875 C 0.90625 -4.242188 0.59375 -5.503906 0.59375 -6.953125 C 0.59375 -8.390625 0.910156 -9.640625 1.546875 -10.703125 C 2.179688 -11.773438 3.046875 -12.597656 4.140625 -13.171875 C 5.234375 -13.753906 6.472656 -14.046875 7.859375 -14.046875 C 9.242188 -14.046875 10.484375 -13.753906 11.578125 -13.171875 C 12.679688 -12.597656 13.550781 -11.773438 14.1875 -10.703125 C 14.820312 -9.640625 15.140625 -8.390625 15.140625 -6.953125 C 15.140625 -5.515625 14.820312 -4.253906 14.1875 -3.171875 C 13.550781 -2.097656 12.679688 -1.269531 11.578125 -0.6875 C 10.472656 -0.113281 9.226562 0.171875 7.84375 0.171875 Z M 7.84375 -4.03125 C 8.519531 -4.03125 9.082031 -4.28125 9.53125 -4.78125 C 9.988281 -5.289062 10.21875 -6.015625 10.21875 -6.953125 C 10.21875 -7.890625 9.988281 -8.601562 9.53125 -9.09375 C 9.082031 -9.59375 8.523438 -9.84375 7.859375 -9.84375 C 7.203125 -9.84375 6.648438 -9.59375 6.203125 -9.09375 C 5.765625 -8.601562 5.546875 -7.890625 5.546875 -6.953125 C 5.546875 -5.992188 5.757812 -5.265625 6.1875 -4.765625 C 6.613281 -4.273438 7.164062 -4.03125 7.84375 -4.03125 Z M 7.84375 -4.03125 "/></g></g></g><g clip-path="url(#d8ed619c37)"><path fill="#3f51b5" d="M 39.496094 24.222656 L 36.574219 21.800781 L 43.199219 14.535156 L 36.574219 7.265625 L 39.496094 4.84375 L 48.265625 14.535156 Z M 39.496094 24.222656 " fill-opacity="1" fill-rule="nonzero"/></g><g clip-path="url(#209e30f887)"><path fill="#3f51b5" d="M 17.085938 24.222656 L 8.316406 14.535156 L 17.085938 4.84375 L 20.007812 7.265625 L 13.285156 14.535156 L 20.007812 21.800781 Z M 17.085938 24.222656 " fill-opacity="1" fill-rule="nonzero"/></g><g clip-path="url(#a5e133239d)"><path fill="#2196f3" d="M 24.878906 29.066406 L 21.175781 27.808594 L 30.726562 0 L 34.429688 1.257812 Z M 24.878906 29.066406 " fill-opacity="1" fill-rule="nonzero"/></g><g fill="#3f51b5" fill-opacity="1"><g transform="translate(140.375254, 22.960395)"><g><path d="M 8.28125 -17.4375 C 10.113281 -17.4375 11.71875 -17.066406 13.09375 -16.328125 C 14.46875 -15.597656 15.523438 -14.570312 16.265625 -13.25 C 17.015625 -11.9375 17.390625 -10.429688 17.390625 -8.734375 C 17.390625 -7.046875 17.015625 -5.539062 16.265625 -4.21875 C 15.515625 -2.90625 14.445312 -1.875 13.0625 -1.125 C 11.6875 -0.375 10.09375 0 8.28125 0 L 1.390625 0 L 1.390625 -17.4375 Z M 7.921875 -4.28125 C 9.335938 -4.28125 10.445312 -4.664062 11.25 -5.4375 C 12.0625 -6.21875 12.46875 -7.316406 12.46875 -8.734375 C 12.46875 -10.171875 12.0625 -11.28125 11.25 -12.0625 C 10.445312 -12.84375 9.335938 -13.234375 7.921875 -13.234375 L 6.234375 -13.234375 L 6.234375 -4.28125 Z M 7.921875 -4.28125 "/></g></g></g><g fill="#3f51b5" fill-opacity="1"><g transform="translate(158.551941, 22.960395)"><g><path d="M 8.28125 -17.4375 C 10.113281 -17.4375 11.71875 -17.066406 13.09375 -16.328125 C 14.46875 -15.597656 15.523438 -14.570312 16.265625 -13.25 C 17.015625 -11.9375 17.390625 -10.429688 17.390625 -8.734375 C 17.390625 -7.046875 17.015625 -5.539062 16.265625 -4.21875 C 15.515625 -2.90625 14.445312 -1.875 13.0625 -1.125 C 11.6875 -0.375 10.09375 0 8.28125 0 L 1.390625 0 L 1.390625 -17.4375 Z M 7.921875 -4.28125 C 9.335938 -4.28125 10.445312 -4.664062 11.25 -5.4375 C 12.0625 -6.21875 12.46875 -7.316406 12.46875 -8.734375 C 12.46875 -10.171875 12.0625 -11.28125 11.25 -12.0625 C 10.445312 -12.84375 9.335938 -13.234375 7.921875 -13.234375 L 6.234375 -13.234375 L 6.234375 -4.28125 Z M 7.921875 -4.28125 "/></g></g></g></svg>